<svg width="100" height="100" viewBox="0 0 100 100" fill="none" xmlns="http://www.w3.org/2000/svg"><path d="M60.4691 88.0292c-2.1463-.3912-4.5174 1.429-6.555 2.0491-2.4284.7389-4.9668 1.1426-7.5049 1.1112-5.0035-.0621-10.1401-1.2381-14.3754-3.9721.7682-.523 1.7049-1.2712 1.8893-2.2075.0279-.1418-.1123-.3166-.2621-.2204-.7638.492-1.2758 1.3493-1.997 1.921-.9267.7349-2.0049 1.2083-3.1516 1.4601-.255.056-.1605.4343.0921.3952.9849-.1519 1.9232-.4649 2.7878-.9504 4.1776 3.6623 9.0687 6.2468 14.656 6.5236 2.7986.1386 5.6374-.1813 8.3284-.9713 2.0974-.6157 5.9446-1.5975 6.6837-3.9862.1323-.4279-.1056-1.0637-.5913-1.1523zM51.9061 43.3466c-4.4222-3.6011-8.5508-3.5286-10.7067-3.1281-.3239.06-.3184.5298.0068.5822 3.6835.5963 6.5339 2.8206 7.1945 4.4813-11.7996-1.904-19.2958 2.7635-19.2958 2.7635.002-.0004.0036-.0008.0056-.0016-1.6634.668-3.3117 1.4963-4.8875 2.4713.0641-2.8368-2.1484-5.8327-3.6051-8.026-2.3316-3.5132-3.0034-7.3205-1.724-11.395 1.1921-3.7928 4.2449-6.609 7.9691-7.779.4944-.1559.9885-.2796 1.4829-.3735.0347 1.4525.253 2.9045.6861 4.3303.6949 2.2699 1.2416 4.4544.1395 6.6944-.4797.9763-.9419 1.9875-1.8463 2.6225-1.0611.7497-2.2707 1.0584-3.5469.8053-.7212-.1438-1.0148.8852-.3052 1.1144 2.8723.9263 6.3148-.7703 8.0041-3.178 2.4595-3.5075 1.5117-7.3999.9156-11.3248-.0609-.3908-.096-.7909-.1103-1.1966-.0407-1.1728.096-2.3839.3518-3.5805.3518-1.6788.9331-3.3311 1.561-4.7924.9308-2.1607 2.2827-4.1687 4.0533-5.71821 2.9536-2.5781 7.0734-3.72474 10.8182-3.9834 3.6373-.24979 7.3559-.03544 10.5103 1.99916 2.64 1.69939 4.6896 4.31855 5.998 7.17625.5582 1.2172 1.0029 2.5753 1.1599 3.9161.0912.7929.0848 1.4061-.0682 2.0721-.9128.2732-1.7854.6426-2.5113.969-1.9854.8928-3.7417 2.1595-5.604 3.2726-4.813 2.8771-10.5329 3.9641-16.058 3.1611-.6574-.0955-.9606.8417-.2825 1.0367 5.0752 1.46 10.5665 1.4069 15.5899-.2659 1.6487-.5492 3.1309-1.2998 4.6079-2.1317v.0004c.0016-.0012.0032-.0021.0047-.0029.4519-.2546.9033-.5161 1.3591-.7828.0315-.0169.0833-.0451.1152-.0624 8.4447-4.2058 16.9935 1.5942 16.9935 8.5904 0 12.7688-18.8654 18.9359-28.9752 9.6638zm31.9304-18.1205c-2.9277-3.4926-7.7149-5.7706-12.1952-5.6618-.1526.002-.3036.0121-.4554.0218.3287-4.7384-2.6409-9.81688-5.6921-13.00214-3.6229-3.78073-8.2049-5.41847-13.31-5.57116-9.5656-.28525-18.8284 4.18039-22.3318 13.656-.5526 1.4963-.9829 3.037-1.2387 4.5949-.0725.0061-.1427.015-.2152.0266-8.8822 1.2877-15.348 10.1517-12.6996 19.1184 1.4594 4.9391 6.3558 8.0405 6.9487 13.1504-4.5294 3.1957-8.2452 7.6525-9.6262 12.9856-.1717.6643.7586.8936.9941.2792 3.1138-8.1171 11.1645-13.656 19.375-15.355 4.4804-.9291 8.9926-.5649 13.4176.4818 4.3756 1.0351 8.6118 2.5548 13.0455 3.3662 8.6293 1.5817 17.8052-.0028 23.3494-7.47 4.2943-5.7859 5.527-14.7821.6339-20.6208zM31.4956 91.8116c-.0785.1019-.1825.1515-.3124.1483-.1302-.0037-.2657-.0605-.4052-.1705-.19-.1502-.3785-.3033-.5649-.4593.182-.2123.3633-.4258.5442-.6393.1797.1498.3614.2973.5447.4419.141.1116.2299.2244.2657.3405.0359.1156.0124.2288-.0721.3384zm.5502-.0302c.0212-.1068.0168-.2127-.0119-.3183-.0287-.1056-.0817-.2103-.1582-.3151-.0765-.1047-.1749-.2038-.296-.2989-.314-.2474-.6232-.5024-.9268-.7647-.545.6257-1.0965 1.2461-1.6539 1.8622.1299.1124.2606.224.3925.3344.1904-.2184.3801-.4372.5689-.6563.1618.1349.3248.2683.4893.3992-.0004.3703.0064.7425.0191 1.1156.1622.1229.3252.2442.4897.3634-.0243-.4065-.0406-.811-.049-1.2139.094.0423.1877.0709.2805.0854.0928.0149.1821.0145.2674-.0004.0856-.0149.1661-.0455.2422-.0914.0761-.046.145-.1108.2072-.195.0721-.0971.1183-.1995.139-.3062zM33.4023 92.633c.4311.2772.8698.5419 1.3156.7937.0654-.1144.1311-.2288.196-.3436-.5745-.324-1.1371-.6701-1.6865-1.0375-.4642.689-.9351 1.3743-1.4125 2.0552.6069.4073 1.228.7908 1.8619 1.1498.0673-.1136.1347-.2272.2016-.3408-.4797-.2712-.9518-.5568-1.4156-.8562.1235-.1845.2466-.3694.3697-.5544.3965.2559.7997.5008 1.2081.7357.0673-.1136.1343-.2272.2012-.3408-.4028-.2313-.8001-.4726-1.1913-.7248.1175-.1785.2351-.3574.3518-.5363zM37.0409 94.2075c-.1211-.1128-.2693-.2103-.4466-.2941-.1195-.0564-.2367-.0942-.3522-.1124-.116-.0185-.2239-.0173-.3247.0037-.1004.0213-.1921.0604-.2746.1184-.082.0576-.149.135-.2004.2317-.0546.1031-.0829.1994-.084.2896-.0012.0903.0199.1785.0637.2647.0434.0863.1088.1721.196.2575.0873.0854.1921.1749.3144.2675.1064.0822.1916.1519.255.2099.0633.058.1104.11.1406.1567.0307.0464.0463.0895.0475.129.0008.0395-.0084.0793-.0275.1204-.0415.0887-.116.1398-.2244.1535-.1083.0133-.2338-.0129-.3757-.0793-.1645-.0774-.298-.1729-.4004-.2857-.1024-.1124-.1912-.2466-.2658-.4021-.1386.0468-.2781.0923-.4187.137.0884.1994.2096.3743.3634.5242.1534.1494.333.2735.537.3698.1387.0653.2742.1092.4049.1318.1306.0225.2514.0229.3613.0012.11-.0218.2072-.0653.2921-.1297.0849-.0649.151-.1515.1996-.2603.043-.0955.0618-.1862.0578-.2724-.0044-.0858-.0291-.1704-.0737-.2534-.0447-.083-.1104-.166-.1965-.2486-.0864-.0834-.1884-.17-.3064-.2618-.1075-.0814-.1944-.1531-.2601-.2136-.0662-.0608-.114-.116-.1439-.1648-.0298-.0491-.045-.0938-.0454-.1337-.0004-.0399.0112-.0822.0335-.1265.0378-.0746.1044-.1201.2004-.1382.0956-.0182.206.0032.3319.0628.1115.0532.2131.1245.3052.2152.0916.0902.1773.1986.2574.3247.1243-.0661.2478-.133.3701-.2006-.0864-.1487-.19-.2788-.3108-.3921zM40.3024 95.3751c-.6949-.2082-1.3806-.4447-2.0543-.7086-.0502.1261-.1008.2518-.1514.3775.2673.1051.5363.2054.8072.3017-.2403.6547-.4853 1.3078-.7355 1.9589.163.0584.3259.1148.4897.17.2386-.6555.4725-1.313.7012-1.9717.2725.0914.5467.1784.8224.261.0406-.1297.0809-.259.1207-.3888zM41.189 97.1797c.2443-.2833.4817-.5693.7132-.8586.0753.359.1554.718.2403 1.0769-.3195-.0672-.6371-.1402-.9535-.2183zm.6308-1.417c-.5853.724-1.2109 1.4295-1.8755 2.1128.1694.0483.3387.095.5088.1406.1538-.1676.3056-.336.455-.5057.4395.112.8818.2136 1.3268.3046.0506.216.1024.4315.1566.6471.1785.0346.3578.0681.5375.0995-.2574-.8981-.4849-1.7989-.6821-2.7018-.1427-.031-.2853-.0637-.4271-.0971zM45.8906 97.8606c-.0227.2304-.1051.3988-.2486.5044-.143.1055-.3307.1478-.5594.1249-.2315-.0234-.4044-.1044-.5163-.2401-.1124-.1358-.1495-.3199-.1148-.5508.0697-.469.1375-.9383.2028-1.4081-.1566-.0193-.3124-.0403-.4681-.0625-.0742.4743-.1507.948-.2295 1.4218-.0299.1785-.0283.3397.0063.4831.0347.143.0984.2683.1917.3743.0928.1064.2131.1918.3598.2562.147.0645.3163.1068.5072.1261.194.0194.3721.0125.5335-.0209.1613-.0334.3016-.0935.4203-.1797.1184-.0862.2136-.1978.2853-.3344.0721-.1366.1151-.2977.1303-.4831.0382-.4717.0745-.9435.1084-1.4153-.1582-.0085-.3164-.019-.4742-.0302-.0422.4782-.0872.9564-.1347 1.4343zM48.0819 97.7377c.0063-.2812.0123-.5625.0167-.8441.2383-.0008.4765-.0048.7152-.0121.1837-.0056.3271.0234.4303.0895.1032.0656.1574.1676.161.3066.0035.1293-.047.2349-.1526.3166-.1052.0814-.2495.1253-.4303.131-.2471.0072-.4937.0117-.7403.0125zm1.4435.1708c.0833-.0488.1538-.1068.2124-.1737.0581-.0668.1028-.1426.1338-.2272.0307-.0846.0439-.1789.0391-.284-.0052-.1213-.0343-.2297-.0865-.3256-.0526-.0954-.1243-.1744-.2155-.2369-.0913-.0624-.2008-.1087-.3295-.1398-.1283-.0306-.271-.0431-.4284-.0382-.4087.0133-.8167.0173-1.2235.0121-.0263.8335-.0594 1.6675-.1004 2.5011.1733.0028.3466.004.5203.0036.0092-.2909.0179-.5817.0251-.8726.2136-.0008.4275-.0037.6415-.0093.2378.2848.4821.5669.7327.8453.2072-.0101.4144-.0226.622-.0375-.2813-.2965-.5551-.5971-.8208-.9017.102-.0282.1944-.0669.2777-.1156zM51.827 97.7453c.1326-.3549.2585-.7103.3777-1.0665.2036.3062.4119.61.6243.9122-.3339.0572-.6678.1088-1.002.1543zm.094-1.5548c-.3036.8937-.6507 1.7836-1.0411 2.6664.1805-.0178.361-.0371.5414-.0584.0873-.2132.1726-.4263.255-.6402.465-.0601.9296-.1314 1.3942-.2144.1275.1821.2566.363.3868.5435.1861-.035.3722-.0721.5578-.1108-.5761-.7381-1.1243-1.4907-1.6443-2.2562-.1498.0246-.3.048-.4498.0701zM56.4462 95.1414c.1609.5536.3183 1.1088.4721 1.6648-.6702-.388-1.3164-.7986-1.9376-1.2292-.149.0394-.298.0781-.447.1152.1769.815.3466 1.6321.5092 2.4512.1741-.0431.3478-.0875.5215-.1334-.1255-.5805-.255-1.1599-.3876-1.7385.6498.4404 1.3259.8586 2.0272 1.2534.1454-.0475.2904-.0963.4355-.1462-.2319-.8022-.4714-1.6011-.718-2.3976-.1582.0548-.3168.1084-.4753.1603zM60.0698 93.6629c-.7187.3541-1.4459.674-2.1782.9601.0446.1281.0893.2566.1335.3847.2904-.1132.5797-.2316.8682-.3553.2486.6523.492 1.3065.7311 1.9633.1725-.0738.3446-.1487.5168-.2257-.2503-.6522-.5057-1.3021-.7654-1.9495.2872-.1298.5733-.2647.8582-.4049-.0546-.1241-.1092-.2486-.1642-.3727z" fill="#201C19"/><path d="M33.546 81.7751c.6917-.7993 1.328-1.68 1.9089-2.6422.5801-.9617.9822-1.6989 1.2049-2.2114.2219-.5117.4076-.9931.5558-1.4428.3207-.9746.4634-1.9427.4259-2.9048-.037-.9613-.2163-1.6051-.5371-1.9303-.7414-1.649-1.5941-2.5982-2.5575-2.8484-.2223-.0496-.402.0189-.5375.2063-.1363.1873-.1426.3811-.0183.5809.5677.8497.7654 1.8364.5929 2.9609-.173 1.1245-.5563 2.23-1.1491 3.317-.5929 1.087-1.3591 2.1051-2.2982 3.0543-1.5563 1.6494-3.2863 2.8738-5.1888 3.6732-1.9029.7997-3.5341.7872-4.8927-.0375-1.0874-2.1486-1.3284-4.5539-.7228-7.215.6052-2.6607 2.0073-5.3278 4.2071-8.0014 2.1499-2.6482 4.6202-4.8162 7.4128-6.5031 2.7918-1.6865 5.041-2.3798 6.7455-2.0801-.2471.2502-.5805.5753-1.0005.9746-.9638.9746-1.6252 1.7119-1.983 2.2115-.3586.5-.5371 1.0491-.5371 1.649 0 .475.0925.8936.2777 1.2554.1853.3626.3706.6249.5558.7873.1853.1627.4511.3557.7969.5805l.0371.0379c.1486.0749.3028.0814.4637.0185.1602-.062.265-.1688.3148-.3186.1235-.4497.3765-.9428.7598-1.4803.3829-.537.7287-.9617 1.0379-1.2743.3088-.3123.7471-.7309 1.3157-1.2554.6171-.5745 1.0622-1.0177 1.3343-1.3308.2717-.3122.4323-.5995.4821-.8618.049-.2622.4694-5.7138-6.6351-5.3411-2.54.1334-5.0346 1.2744-7.5423 2.7735-2.5082 1.4992-4.7876 3.4359-6.8383 5.8093-1.8782 2.174-3.3489 4.4854-4.4107 6.9338-1.063 2.4491-1.5571 4.6852-1.4826 6.7089.0243 1.2498.2407 2.4363.6487 3.5604.4076 1.1244.8024 1.9556 1.1857 2.4926.3829.5375.7722 1.0181 1.1678 1.4428.6172 1.0241 1.4762 1.7989 2.5759 2.3239 1.0993.5245 2.2794.7868 3.5397.7868.8395 0 1.6431-.1124 2.4093-.3372 1.2846-.3747 2.4954-.9557 3.6321-1.7429 1.1364-.7869 2.0508-1.5797 2.7428-2.3799zM43.6827 63.0544c-.606 1.8614-1.1247 3.3919-1.557 4.5909-.4323 1.1995-1.0192 2.7864-1.7603 4.7602-1.3101 3.4733-2.0388 5.547-2.187 6.2214-.3706 1.9243-.0988 3.2606.8156 4.0104.3948.3252.8646.4871 1.408.4871.3459 0 .6917-.062 1.038-.1873h.0745c.1482-.0246.2717-.0871.3701-.1874.1729-.1249.2721-.3001.2968-.5249.0495-.0496.0738-.1124.0738-.1874.3462-1.8984 1.0566-3.9354 2.1316-6.109 1.0749-2.174 2.1866-3.9665 3.3357-5.3782 1.149-1.4113 2.0694-2.1796 2.7615-2.3049.0239.425-.5439 1.9242-1.7053 4.4974-.2964.6745-.5251 1.1869-.6857 1.5367-.161.3501-.3769.8372-.6487 1.4616-.2717.6249-.4761 1.131-.6111 1.5181-.1359.3876-.2845.8497-.4451 1.3868-.161.5374-.2658.9871-.3152 1.3489-.0494.3626-.0741.7308-.0741 1.1059 0 .3747.0494.6873.1486.9367.1977.5004.5188.8497.9635 1.0495.2964.1253.6052.1874.9267.1874.2466 0 .4941-.0431.7411-.1313.247-.0871.4506-.1805.6116-.2809.1606-.0995.3211-.2183.4821-.3561.1606-.137.2713-.2373.3335-.2998.0613-.062.1048-.1184.1299-.1688.1482-.1744.1482-.3618 0-.562-.0745-.0995-.1239-.2309-.1486-.3936-.0247-.162-.0124-.3683.037-.6185.0494-.2494.0988-.4931.1486-.7308.049-.2373.1419-.5435.2781-.9182.1351-.3747.2526-.699.3519-.9742.0984-.2748.241-.6309.4263-1.0685.1856-.4367.3335-.7739.4446-1.012.1112-.2369.2534-.581.4264-1.0306 1.5068-3.4979 2.3101-5.8339 2.4093-7.0087.0494-.699-.1733-1.2115-.6674-1.5366-.3462-.2494-.7913-.3433-1.334-.2813-.5442.0629-1.0323.1632-1.4642.3002-.4327.1374-.7969.3062-1.0937.5056-1.7543 1.025-3.4719 2.8992-5.1517 5.6224.8893-2.5733 2.1989-6.0466 3.9289-10.4196.6913-1.724 1.0618-2.6986 1.1116-2.9234.4945-1.6236.2471-2.8355-.741-3.6353-.569-.4246-1.2918-.6684-2.1687-.7308-.877-.062-1.4392.0314-1.6862.2808-.2721.1503-.3833.3505-.3335.5999.1482.6745.0988 1.637-.1482 2.8859-.2474 1.2498-.6733 2.8049-1.2786 4.6663zM63.0864 68.9571c.3952-.2494.6912-.3118.8893-.1873.3211.2002.457.6748.408 1.4242-.0498.7494-.3092 1.4992-.7786 2.2489-.4697.7494-1.112 1.3115-1.9272 1.6865-.4446.2003-.9148.1499-1.4085-.1498-.3705-.2494-.5809-.6245-.6303-1.1245.9638-1.7739 2.1129-3.0732 3.4473-3.898zM64.198 79.62c-.198-.1623-.3833-.1559-.5554.019-1.5571 1.4492-2.9783 1.9991-4.2629 1.649-.7167-.1998-1.149-.8368-1.2969-1.9117-.2227-1.4488.061-3.1353.8523-5.0595.3948.95 1.0375 1.5995 1.9276 1.9488.2713.1003.5678.1627.8893.1873.3207.0254.7164-.0185 1.1857-.1309.4694-.1124.9694-.4057 1.5013-.8807.5316-.4747 1.0435-1.1245 1.5384-1.9492.7164-1.1741 1.1176-2.3855 1.2045-3.6353.0864-1.2494-.1666-2.2735-.7595-3.0733-.9638-1.2989-2.5455-1.6365-4.7445-1.012-2.5452.7252-4.535 2.4117-5.9673 5.0595-1.2603 2.3239-1.8161 4.7476-1.6683 7.2709.0988 1.4996.4574 2.7175 1.075 3.6547.6172.9367 1.4204 1.4802 2.4093 1.6301.2714.0503.5562.0749.8523.0749 1.1861 0 2.3471-.3243 3.4843-.9742 1.1363-.6494 1.9515-1.4113 2.446-2.2864.1235-.2248.0864-.4182-.1112-.581z" fill="#201C19"/><path d="M75.5762 74.2044c-.0741 1.2244-.4139 2.6236-1.0192 4.1977-.6056 1.5741-1.2849 2.9858-2.0387 4.2352-.7539 1.249-1.4699 2.317-2.1496 3.2042-.6797.8868-1.1674 1.3682-1.4638 1.4431v-.0374c-.0502-.0999-.0741-.2623-.0741-.4871.4685-1.8497 1.1857-4.1603 2.1495-6.9338.9638-2.7735 2.0507-5.7843 3.2616-9.0324 1.0128.5496 1.4578 1.6865 1.3343 3.4105zm2.7879-17.9299c-1.4993-.3912-6.069-.3525-7.0077-.284h-.0004c-2.0113.0713-4.0377.5463-5.88 1.1559-2.1329.7063-4.1625 1.6813-6.259 2.4919-2.1998.8509-5.0872 1.811-6.6184-.6882-.2598-.4242-.8526-.0548-.6514.3852 1.7837 3.8943 6.8211 2.7195 10.0712 2.1075 2.3527-.4428 4.7473-1.1293 7.1263-1.3722 1.1364-.1161 2.4906-.2522 3.7457-.1088-.1367.7393-.3462 1.6188-.6311 2.6426-.3586 1.2872-.7108 2.4866-1.0567 3.5982-.3462 1.112-.8279 2.5241-1.4451 4.2352-.6183 1.7115-1.1001 3.0422-1.4459 3.9914-.3462.95-.8283 2.2618-1.4455 3.9354-1.5567 4.2227-2.3962 6.6711-2.5205 7.346v.0374c-.5925 2.2731-.5558 3.7856.1112 4.535.3956.4742.9148.7119 1.557.7119.469 0 .9878-.1374 1.5567-.4122 1.0375-.5245 2.1926-1.4867 3.4656-2.8859 1.2722-1.3996 2.4396-3.0112 3.5026-4.8347 1.161-1.9737 2.0013-3.8419 2.5201-5.603.5192-1.7618.6674-3.242.445-4.4415-.1486-.7743-.445-1.4113-.8897-1.9113.2224.025.5192.0504.8897.075.6172.0249 1.087.0503 1.4085.0749h.0371c.1231 0 .2279-.0246.3151-.0749.0861-.05.1602-.1185.2219-.2063.0618-.0874.0929-.1809.0929-.2812.0243-.1745-.0187-.3308-.1299-.4686-.1112-.137-.2534-.2059-.4259-.2059-.3216-.0245-.8033-.062-1.4455-.1124-1.3344-.0995-2.2739-.1877-2.817-.2623.4937-1.3243 1.136-3.0233 1.9273-5.0973.7905-2.0487 1.2231-3.1857 1.2973-3.4105.0302-.1003.0581-.1986.0828-.2957.222.0181.4451.0209.6694.0024 1.0937-.089 2.3539-1.1209 2.1137-2.1631-.2526-1.0975-.8188-1.7707-2.4874-2.2059z" fill="#201C19"/></svg>